<?xml version="1.0" encoding="UTF-8"?>
<svg id="Layer_1" xmlns="http://www.w3.org/2000/svg" version="1.1" viewBox="0 0 500 500">
  <!-- Generator: Adobe Illustrator 30.2.1, SVG Export Plug-In . SVG Version: 2.1.1 Build 1)  -->
  <defs>
    <style>
      .st0 {
        fill: #fff;
      }
    </style>
  </defs>
  <rect x="1258.2" y="-708.4" width="1239.2" height="431"/>
  <rect x="587.9" width="500" height="500"/>
  <g>
    <g>
      <path d="M398.8-536.6l-64.5,138.8h-28.6l24-48-40.5-90.8h29l20,46.8c2.4,5.8,3.8,10.5,5.8,25.8,2-15.3,3.4-20,5.8-25.8l20-46.8h29Z"/>
      <path d="M402-539.8h19.4v-32.3h32.3v32.3h25.8v27.4h-25.8v72.6h-32.3v-72.6h-19.4v-27.4Z"/>
      <path d="M522.3-477.7v37.9h-32.3v-100h32.3c0,10.7-.6,15.5-2,21.6l-2.8,12.5c10.3-36.1,23.4-36.7,37.1-35.7v36.1c-17.1-7.5-32.3-1.8-32.3,27.6Z"/>
      <path d="M671.5-539.8v100h-32.3c0-6.9.4-10.3,1.6-14.7l3.2-11.7c-10.1,22.2-22,29.7-38.3,29.7-26,0-45.6-23.8-45.6-53.2s19.6-53.2,45.6-53.2,28.2,7.5,38.3,29.7l-3.2-11.7c-1.2-4.4-1.6-7.9-1.6-14.7h32.3ZM616.7-465.6c13.3,0,24.2-10.9,24.2-24.2s-10.9-24.2-24.2-24.2-24.2,10.9-24.2,24.2,10.9,24.2,24.2,24.2Z"/>
      <path d="M762.7-588.2h32.3v148.5h-32.3c0-6.9.4-10.3,1.6-14.7l3.2-11.7c-10.1,22.2-22,29.7-38.3,29.7-26,0-45.6-23.8-45.6-53.2s19.6-53.2,45.6-53.2,28.2,7.5,38.3,29.7l-3.2-11.7c-1.2-4.4-1.6-7.9-1.6-14.7v-48.4ZM740.1-465.6c13.3,0,24.2-10.9,24.2-24.2s-10.9-24.2-24.2-24.2-24.2,10.9-24.2,24.2,10.9,24.2,24.2,24.2Z"/>
      <path d="M858.5-543c26.6,0,51.8,15.7,51.8,50s-.2,8.9-.6,11.3h-73.6c2.6,11.5,12.7,19.4,29.7,19.4s23.4-3.4,36.3-11.7v29.8c-11.9,4.8-23.2,7.7-40.1,7.7-36.5,0-58.1-23.8-58.1-53.2s20-53.2,54.7-53.2ZM878.9-497.8c-.8-13.1-9.3-20.2-20-20.2s-21,9.1-22.8,20.2h42.8Z"/>
      <path d="M941-588.2v148.5h-25.8v-148.5h25.8Z"/>
      <path d="M1053.1-488.1c0,27.6-20.6,50-51.6,50s-51.6-22.4-51.6-50,18.6-50,51.6-50,51.6,22.4,51.6,50ZM1001.5-462.3c15.9,0,25.8-11.5,25.8-25.8s-10.5-25.8-25.8-25.8-25.8,11.5-25.8,25.8,10.5,25.8,25.8,25.8Z"/>
      <path d="M1069.3-403.6v-29.8c10.3,9.3,22.8,14.7,35.7,14.7,19.2,0,28.2-10.1,30.1-24.6.6-4.6.8-8.1,2-12.3l2.8-9.7c-7.3,16.5-19.4,25.6-36.7,25.6-24.8,0-43.6-21-43.6-49.2s18.8-49.2,43.6-49.2,29.4,9.1,36.7,25.6l-2.8-9.7c-1.2-4.4-1.6-7.9-1.6-14.3h25.8v83.9c0,37.5-22.2,56.5-52.6,56.5s-26.8-2.6-39.3-7.5ZM1111.2-463.9c14.9,0,25.8-10.5,25.8-25s-10.9-25-25.8-25-25.8,10.5-25.8,25,10.9,25,25.8,25Z"/>
    </g>
    <g>
      <polygon points="127.3 -439.7 170.9 -439.7 248.1 -517 248.1 -439.7 276.2 -439.7 276.2 -588.6 127.3 -439.7"/>
      <polygon points="187.6 -588.5 187.6 -588.6 187.6 -588.5 161.3 -588.5 145.5 -572.8 171.8 -572.8 38.7 -439.7 82.3 -439.7 159.5 -516.9 193.4 -550.8 193.4 -524.6 209.2 -540.4 209.2 -588.5 187.6 -588.5"/>
    </g>
  </g>
  <g>
    <g>
      <path class="st0" d="M1676.8-536.6l-64.5,138.8h-28.6l24-48-40.5-90.8h29l20,46.8c2.4,5.8,3.8,10.5,5.8,25.8,2-15.3,3.4-20,5.8-25.8l20-46.8h29Z"/>
      <path class="st0" d="M1680-539.8h19.4v-32.3h32.3v32.3h25.8v27.4h-25.8v72.6h-32.3v-72.6h-19.4v-27.4Z"/>
      <path class="st0" d="M1800.3-477.7v37.9h-32.3v-100h32.3c0,10.7-.6,15.5-2,21.6l-2.8,12.5c10.3-36.1,23.4-36.7,37.1-35.7v36.1c-17.1-7.5-32.3-1.8-32.3,27.6Z"/>
      <path class="st0" d="M1949.5-539.8v100h-32.3c0-6.9.4-10.3,1.6-14.7l3.2-11.7c-10.1,22.2-22,29.7-38.3,29.7-26,0-45.6-23.8-45.6-53.2s19.6-53.2,45.6-53.2,28.2,7.5,38.3,29.7l-3.2-11.7c-1.2-4.4-1.6-7.9-1.6-14.7h32.3ZM1894.7-465.6c13.3,0,24.2-10.9,24.2-24.2s-10.9-24.2-24.2-24.2-24.2,10.9-24.2,24.2,10.9,24.2,24.2,24.2Z"/>
      <path class="st0" d="M2040.7-588.2h32.3v148.5h-32.3c0-6.9.4-10.3,1.6-14.7l3.2-11.7c-10.1,22.2-22,29.7-38.3,29.7-26,0-45.6-23.8-45.6-53.2s19.6-53.2,45.6-53.2,28.2,7.5,38.3,29.7l-3.2-11.7c-1.2-4.4-1.6-7.9-1.6-14.7v-48.4ZM2018.1-465.6c13.3,0,24.2-10.9,24.2-24.2s-10.9-24.2-24.2-24.2-24.2,10.9-24.2,24.2,10.9,24.2,24.2,24.2Z"/>
      <path class="st0" d="M2136.5-543c26.6,0,51.8,15.7,51.8,50s-.2,8.9-.6,11.3h-73.6c2.6,11.5,12.7,19.4,29.7,19.4s23.4-3.4,36.3-11.7v29.8c-11.9,4.8-23.2,7.7-40.1,7.7-36.5,0-58.1-23.8-58.1-53.2s20-53.2,54.7-53.2ZM2156.9-497.8c-.8-13.1-9.3-20.2-20-20.2s-21,9.1-22.8,20.2h42.8Z"/>
      <path class="st0" d="M2219-588.2v148.5h-25.8v-148.5h25.8Z"/>
      <path class="st0" d="M2331.1-488.1c0,27.6-20.6,50-51.6,50s-51.6-22.4-51.6-50,18.6-50,51.6-50,51.6,22.4,51.6,50ZM2279.5-462.3c15.9,0,25.8-11.5,25.8-25.8s-10.5-25.8-25.8-25.8-25.8,11.5-25.8,25.8,10.5,25.8,25.8,25.8Z"/>
      <path class="st0" d="M2347.3-403.6v-29.8c10.3,9.3,22.8,14.7,35.7,14.7,19.2,0,28.2-10.1,30.1-24.6.6-4.6.8-8.1,2-12.3l2.8-9.7c-7.3,16.5-19.4,25.6-36.7,25.6-24.8,0-43.6-21-43.6-49.2s18.8-49.2,43.6-49.2,29.4,9.1,36.7,25.6l-2.8-9.7c-1.2-4.4-1.6-7.9-1.6-14.3h25.8v83.9c0,37.5-22.2,56.5-52.6,56.5s-26.8-2.6-39.3-7.5ZM2389.2-463.9c14.9,0,25.8-10.5,25.8-25s-10.9-25-25.8-25-25.8,10.5-25.8,25,10.9,25,25.8,25Z"/>
    </g>
    <g>
      <polygon class="st0" points="1405.3 -439.7 1448.9 -439.7 1526.1 -517 1526.1 -439.7 1554.2 -439.7 1554.2 -588.6 1405.3 -439.7"/>
      <polygon class="st0" points="1465.6 -588.5 1465.6 -588.6 1465.6 -588.5 1439.3 -588.5 1423.5 -572.8 1449.8 -572.8 1316.7 -439.7 1360.3 -439.7 1437.5 -516.9 1471.4 -550.8 1471.4 -524.6 1487.2 -540.4 1487.2 -588.5 1465.6 -588.5"/>
    </g>
  </g>
  <g>
    <polygon points="205.3 360.4 269.9 360.4 384.5 245.8 384.5 360.4 426.1 360.4 426.1 139.6 205.3 360.4"/>
    <polygon points="294.7 139.6 294.7 139.6 294.7 139.6 255.7 139.6 232.3 163 271.3 163 73.9 360.4 138.5 360.4 253 245.8 303.3 195.5 303.3 234.4 326.7 211.1 326.7 139.6 294.7 139.6"/>
  </g>
  <g>
    <polygon class="st0" points="793.2 360.4 857.8 360.4 972.4 245.8 972.4 360.4 1014 360.4 1014 139.6 793.2 360.4"/>
    <polygon class="st0" points="882.6 139.6 882.6 139.6 882.6 139.6 843.6 139.6 820.2 163 859.2 163 661.8 360.4 726.4 360.4 841 245.8 891.2 195.5 891.2 234.4 914.6 211.1 914.6 139.6 882.6 139.6"/>
  </g>
</svg>